Coordinates
version=1
nRows=19
nColumns=34
inDegrees=yes

Units are S.I. units (second, meters, Newtons, ...)
If the header above contains a line with 'inDegrees', this indicates whether rotational values are in degrees (yes) or radians (no).

endheader
time	pelvis_tilt	pelvis_list	pelvis_rotation	pelvis_tx	pelvis_ty	pelvis_tz	hip_flexion_r	hip_adduction_r	hip_rotation_r	knee_angle_r	ankle_angle_r	subtalar_angle_r	mtp_angle_r	hip_flexion_l	hip_adduction_l	hip_rotation_l	knee_angle_l	ankle_angle_l	subtalar_angle_l	mtp_angle_l	lumbar_extension	lumbar_bending	lumbar_rotation	arm_flex_r	arm_add_r	arm_rot_r	elbow_flex_r	pro_sup_r	arm_flex_l	arm_add_l	arm_rot_l	elbow_flex_l	pro_sup_l
      3.65000000	     -5.25814249	      6.69988977	     -7.67273854	     -6.17673899	      0.98137558	     -1.03413534	     -4.26344365	     -6.04222035	      1.34647629	     25.22096174	     24.96612283	      3.53569310	      0.00000000	     22.79306944	     11.35562204	      4.88001925	     19.76825604	     -0.97512346	    -14.90366397	      0.00000000	    -50.68465253	     -2.67056769	      7.51533774	     35.73841588	     -3.39777458	     -1.80921066	     38.22515452	    107.90793495	     56.39445295	     11.47505899	     11.04958551	     96.75828265	     93.82537468
      3.66666670	     -2.93903475	      6.57998002	     -8.22168757	     -6.18065995	      0.98576363	     -1.03506084	     -7.32350855	     -6.36951550	      0.88038299	     23.66479144	     24.42821029	      4.18280827	      0.00000000	     19.36068164	     11.46386006	      4.73855776	     18.10768502	     -1.41938258	    -14.40461127	      0.00000000	    -51.94288858	     -3.27633321	      6.51803205	     35.89849848	     -4.29228014	     -1.98235230	     38.66318637	    108.89501179	     58.35525770	     10.68764757	      8.47462313	     99.93052116	     92.72976300
      3.68333330	     -1.23245314	      6.24593904	     -8.62110769	     -6.18405874	      0.98612020	     -1.03493571	     -9.41227351	     -6.45461906	      0.15398199	     22.69161651	     24.15645411	      4.95612331	      0.00000000	     17.09151557	     11.30787474	      4.52046065	     17.18755181	     -1.26949416	    -13.76143789	      0.00000000	    -52.56814537	     -3.36134718	      5.22027015	     36.98092082	     -5.05398741	     -0.80483569	     37.63669783	    112.62820720	     59.47859415	      8.79435137	      6.04416860	    104.55044171	     89.05810107
      3.70000000	      0.33690885	      6.09526948	     -9.08236719	     -6.18582542	      0.98604474	     -1.03395203	    -11.07982191	     -6.62051330	      0.20242236	     22.24416373	     23.96625589	      4.66191022	      0.00000000	     15.15075960	     11.30504923	      4.39071893	     16.36151810	     -1.20861981	    -13.32568814	      0.00000000	    -53.03284082	     -4.03836525	      4.84386815	     36.84134640	     -6.36070723	     -1.03541341	     38.14325933	    113.36265439	     60.48018261	      7.97228304	      3.59771568	    108.22185794	     88.20618518
      3.71666670	      1.58613315	      5.93430296	     -9.20885162	     -6.18672456	      0.98375549	     -1.03408479	    -12.44427795	     -6.73415572	     -0.19840647	     22.00144731	     23.93145774	      4.77164182	      0.00000000	     13.75802784	     11.30689571	      4.38177041	     15.92846051	     -0.68485977	    -12.82929589	      0.00000000	    -53.06157926	     -4.26114594	      4.18975208	     36.81890395	     -7.41764291	     -1.02382783	     37.75530949	    114.32055063	     61.03468094	      6.61759900	      1.36263156	    112.59502864	     87.36413579
      3.73333330	      2.60937743	      5.87047597	     -8.99846598	     -6.18793564	      0.98304027	     -1.03498579	    -13.70313642	     -6.82005119	     -0.71816224	     21.72820981	     23.93039404	      4.88847586	      0.00000000	     12.75349244	     11.42542999	      4.47653399	     15.77864745	     -0.19430937	    -12.63787571	      0.00000000	    -52.83765184	     -4.39435520	      3.52907754	     36.83570961	     -8.53225806	     -0.98101895	     36.86194553	    115.21318704	     61.56981738	      5.64043965	     -0.61631523	    116.02915978	     86.76716802
      3.75000000	      3.42082405	      5.93805453	     -8.54776541	     -6.18989053	      0.98046754	     -1.03572674	    -14.59264294	     -6.95219698	     -1.49450389	     21.93866934	     24.29229392	      5.02861917	      0.00000000	     12.28165979	     11.69285323	      4.83435519	     16.20022912	      0.28564965	    -12.58791242	      0.00000000	    -52.22153626	     -4.25054649	      2.28740350	     37.88865257	     -9.24294010	      0.20221663	     34.32759395	    118.59208284	     61.44511302	      3.90489529	     -2.75096240	    119.09551955	     85.31626587
      3.76666670	      4.34809291	      6.02107429	     -7.96246698	     -6.19285461	      0.98052410	     -1.03594537	    -15.77449128	     -6.98368417	     -2.26319387	     21.86838106	     24.58589082	      5.07451354	      0.00000000	     11.76886154	     11.97177000	      5.10425178	     16.84989799	      0.61917032	    -12.65915355	      0.00000000	    -52.15333558	     -4.31736281	      1.69751113	     38.02257576	    -10.36978090	     -0.07817008	     34.32965624	    119.15423007	     61.63413167	      3.17288701	     -4.20748510	    121.10312605	     85.15475184
      3.78333330	      5.06950353	      6.01861002	     -7.41816242	     -6.19755154	      0.98241079	     -1.03617160	    -16.56541175	     -6.87425312	     -2.93916109	     21.89591164	     25.03475383	      5.13723840	      0.00000000	     11.66604977	     12.12179835	      5.39002485	     17.80178436	      0.81511287	    -12.80809426	      0.00000000	    -52.13758052	     -4.17895501	      1.15107357	     39.01677400	    -11.34050444	     -0.11710737	     33.65162185	    119.74817918	     61.35336106	      2.26700586	     -5.69736558	    122.90763354	     85.13311660
      3.80000000	      5.71828974	      5.79819785	     -7.00888599	     -6.20274730	      0.98288137	     -1.03658125	    -17.13341718	     -6.49925737	     -3.18333314	     21.88565852	     25.51027057	      5.04441186	      0.00000000	     11.80084869	     12.02253935	      5.62063381	     19.03290791	      0.96533952	    -12.92427337	      0.00000000	    -52.25533572	     -4.01941376	      1.21230721	     40.00824717	    -12.58733081	     -0.19472961	     33.28445947	    119.74817918	     61.03506821	      1.68978555	     -6.39180942	    123.97666704	     85.18340276
      3.81666670	      6.21080938	      5.65484224	     -6.64990838	     -6.20684322	      0.98174248	     -1.03737519	    -17.43333562	     -6.28927603	     -3.74672045	     21.97726247	     25.71389271	      5.11718601	      0.00000000	     12.09982520	     11.98301257	      5.73297170	     20.19135052	      1.05069882	    -13.18265129	      0.00000000	    -52.35049061	     -3.57649290	      0.43849358	     41.84156588	    -13.19384629	      0.76870437	     32.30422887	    119.74817918	     59.94540159	      0.25209131	     -8.03877722	    126.32858572	     85.51955463
      3.83333330	      6.77540998	      5.42048881	     -6.51486107	     -6.21046783	      0.98085410	     -1.03832183	    -17.76487354	     -6.03531998	     -3.90297542	     22.08430138	     26.07157097	      4.98165372	      0.00000000	     12.33708961	     11.81777148	      5.58975449	     21.31389064	      1.00211644	    -13.28430594	      0.00000000	    -52.54336446	     -3.47970661	      0.78551902	     42.69930543	    -14.54411177	      0.63867905	     32.21833439	    119.74817918	     58.87921791	     -0.27725825	     -7.93079567	    126.61904382	     85.60476173
      3.85000000	      6.95745164	      5.08272562	     -6.32040447	     -6.21361052	      0.98176613	     -1.03986011	    -17.79102513	     -5.64805885	     -4.01552761	     21.99298036	     26.08877949	      5.00274507	      0.00000000	     12.99336373	     11.60104662	      5.74072621	     22.51507545	      1.10234744	    -13.58413110	      0.00000000	    -52.45374139	     -3.05433874	      0.72938680	     43.93519347	    -15.49715222	      1.43794123	     31.47718996	    119.74817918	     56.94513398	     -1.60868910	     -6.95259001	    127.57172682	     86.22163551
      3.86666670	      7.48781802	      4.73793703	     -6.52244552	     -6.21656682	      0.98448063	     -1.04102036	    -18.15659256	     -5.42577227	     -3.81039545	     21.79026469	     26.20040493	      5.04791178	      0.00000000	     12.94812714	     11.33790432	      5.52758722	     23.05267757	      0.84888292	    -13.59343045	      0.00000000	    -52.74409643	     -2.85840306	      1.07151088	     44.64995158	    -16.60867786	      1.41814737	     31.24630835	    119.74817918	     54.40491822	     -2.21060056	     -6.17759828	    127.64466062	     86.49721804
      3.88333330	      7.91164273	      4.32523539	     -6.97081372	     -6.22003818	      0.98798070	     -1.04240020	    -18.15484854	     -5.27087132	     -3.54247672	     21.88831342	     25.98389439	      4.94260304	      0.00000000	     12.91269394	     10.99545801	      5.29113588	     23.37782403	      0.50513299	    -13.67141463	      0.00000000	    -53.11496705	     -2.76240147	      1.22839754	     45.87912685	    -17.20872265	      1.64162094	     30.29823725	    119.74817918	     51.42821186	     -3.53745796	     -3.88293705	    127.62853930	     87.47827391
      3.90000000	      8.16209306	      3.87259775	     -7.83137907	     -6.22374546	      0.98857134	     -1.04417071	    -17.81822525	     -5.22424747	     -2.94620390	     22.16634898	     26.06842752	      4.86314341	      0.00000000	     12.93795228	     10.56454039	      4.85431200	     23.45239915	      0.21906612	    -13.65516504	      0.00000000	    -53.54744316	     -2.81924896	      1.60182229	     47.36586305	    -17.76901733	      1.54258521	     29.50274418	    119.74817918	     48.12942770	     -4.32750170	     -1.74361671	    127.67420884	     88.79476226
      3.91666670	      8.05088676	      3.43179205	     -8.89679304	     -6.22747717	      0.98614250	     -1.04609006	    -16.91186816	     -5.24705543	     -2.23331164	     22.82661760	     26.27626875	      4.79541916	      0.00000000	     13.35832802	     10.09578511	      4.42601054	     23.54832642	      0.15751982	    -13.71213296	      0.00000000	    -53.78443401	     -2.86067347	      1.86573397	     48.93577951	    -18.03724975	      1.16641161	     29.21826145	    119.74817918	     44.96255418	     -5.13750293	      0.78049636	    127.68123440	     90.09695929
      3.93333330	      7.65076314	      2.97708585	    -10.01497935	     -6.22984020	      0.98275040	     -1.04734614	    -15.74738447	     -5.17283152	     -1.24545890	     23.48075660	     26.26606704	      4.26138853	      0.00000000	     14.11047351	      9.52333682	      3.91967867	     23.85166209	      0.49960822	    -13.74106656	      0.00000000	    -53.60006674	     -3.04364336	      2.58520322	     49.85781299	    -18.18939115	     -1.15723276	     28.96170580	    119.74817918	     42.69998036	     -5.43296100	      4.52275090	    125.95814054	     98.26364721
      3.95000000	      7.00732795	      2.75987419	    -10.92628557	     -6.22877991	      0.97949190	     -1.04764200	    -14.50289340	     -5.28927367	     -0.75152568	     24.08655568	     26.62943302	      4.42885511	      0.00000000	     14.89163497	      9.22730264	      3.88151625	     23.94117592	      0.72499105	    -14.03721200	      0.00000000	    -53.11850608	     -2.84013287	      2.08933012	     50.68343150	    -17.54988232	     -1.39395827	     29.74664195	    119.74817918	     39.66654663	     -6.98714462	      7.84344756	    125.26654213	     99.14895067
